# xmcd
#
# Track frame offsets: 
#        150
#        11315
#        23012
#        39620
#        52087
#        64552
#        76282
#        86857
#        96960
#        112837
#        129817
#        141987
#        156890
#        168522
#        183615
#
# Disc length: 2589 seconds
#
# Revision: 3
# Processed by: cddbd v1.5.2PL0 Copyright (c) Steve Scherf et al.
# Submitted via: ExactAudioCopy v0.99pb3
#
DISCID=bd0a1b0f
DTITLE=Lee Hazlewood and Ann-Margret - The Cowboy and the Lady
DYEAR=1969
DGENRE=Rock
TTITLE0=Am I That Easy to Forget?
TTITLE1=Only Mama That'll Walk the Line
TTITLE2=Greyhound Bus Depot
TTITLE3=Walk on out of My Mind
TTITLE4=Hangin' On
TTITLE5=Victims of the Night
TTITLE6=Break My Mind
TTITLE7=You Can't Imagine
TTITLE8=Sweet Thing
TTITLE9=No Regrets
TTITLE10=Dark End of the Street
TTITLE11=Sleep in the Grass
TTITLE12=Chico
TTITLE13=You Turn My Head Around
TTITLE14=It's a Nice World to Visit (But Not to Live In)
EXTD=
EXTT0=
EXTT1=
EXTT2=
EXTT3=
EXTT4=
EXTT5=
EXTT6=
EXTT7=
EXTT8=
EXTT9=
EXTT10=
EXTT11=
EXTT12=
EXTT13=
EXTT14=
PLAYORDER=
